<svg enable-background="new 0 0 32 32" viewBox="0 0 32 32" xmlns="http://www.w3.org/2000/svg"><g id="Layer_1" display="none"/><g id="Layer_2"/><g id="Layer_3"/><g id="Layer_4"/><g id="Layer_5"/><g id="Layer_6"/><g id="Layer_7"/><g id="Layer_8"/><g id="Layer_9"/><g id="Layer_10"/><g id="Layer_11"/><g id="Layer_12"/><g id="Layer_13"/><g id="Layer_14"/><g id="Layer_15"/><g id="Layer_16"/><g id="Layer_17"/><g id="Layer_18"/><g id="Layer_19"/><g id="Layer_20"/><g id="Layer_21"/><g id="Layer_22"/><g id="Layer_23"/><g id="Layer_24"/><g id="Layer_25"><path d="m20.403 17.171v-13.954l6.938 2.564v10.93c0 .497.403.9.9.9s.9-.403.9-.9v-10.93c0-.725-.452-1.381-1.125-1.633l-7.856-2.939c-.46-.173-.986-.139-1.379.076l-8.033 4.033-7.255-2.717c-.533-.204-1.136-.132-1.608.194-.471.324-.753.857-.753 1.427v22c0 .718.438 1.356 1.136 1.633l7.856 2.933c.198.072.402.108.607.108.262 0 .523-.06.772-.179l5.479-2.729c.445-.222.626-.762.404-1.207s-.76-.625-1.207-.404l-4.51 2.26v-21.794l6.932-3.484v13.812c0 .497.403.9.9.9s.902-.403.902-.9zm-17.546-12.887 7.013 2.628v21.864l-6.938-2.554z"/><path d="m30.604 29.364-2.262-2.262c.668-.874 1.081-1.952 1.081-3.133 0-2.861-2.329-5.19-5.19-5.19s-5.19 2.329-5.19 5.19 2.329 5.19 5.19 5.19c1.029 0 1.984-.31 2.791-.829l2.307 2.307c.176.176.406.264.637.264s.461-.088.637-.264c.351-.351.351-.921-.001-1.273zm-9.761-5.395c0-1.869 1.521-3.39 3.39-3.39s3.39 1.521 3.39 3.39-1.521 3.39-3.39 3.39-3.39-1.521-3.39-3.39z"/></g><g id="Layer_26"/></svg>